<svg width="138" height="30" viewBox="0 0 138 30" fill="none" xmlns="http://www.w3.org/2000/svg">
<g clip-path="url(#clip0_1_23)">
<path d="M35.9 2.2C35.5 2.2 35.1 2.3 34.8 2.5C34.4 2.7 34.1 3 33.7 3.4L32.7 1.5C33.2 1 33.7 0.7 34.2 0.4C34.8 0.2 35.4 0 36.1 0C36.8 0 37.4 0.1 38 0.4C38.6 0.7 39 1 39.3 1.5C39.6 2 39.8 2.6 39.8 3.2C39.8 3.8 39.7 4.4 39.4 4.9C39.2 5.4 38.8 6 38.2 6.6L36 8.9H39.9V11.1H33.3L32.9 9.2L35.8 6.2C36.3 5.7 36.7 5.2 36.9 4.8C37.1 4.4 37.2 4 37.2 3.6C37.2 3.2 37.1 2.9 36.8 2.6C36.7 2.3 36.3 2.2 35.9 2.2Z" fill="#6A3906"/>
<path d="M42.3 1.3C43 0.4 43.9 0 45.1 0C46.2 0 47.2 0.4 47.9 1.2C48.6 2 48.9 3.5 48.9 5.5C48.9 7.6 48.6 9 47.9 9.8C47.2 10.6 46.3 11 45.1 11C44 11 43 10.6 42.3 9.8C41.6 9 41.3 7.5 41.3 5.5C41.3 3.5 41.6 2.1 42.3 1.3ZM45.7 8.8C45.9 8.6 46 8.3 46.1 7.8C46.2 7.3 46.3 6.6 46.3 5.7C46.3 4.8 46.2 4.1 46.1 3.6C46 3.1 45.8 2.8 45.7 2.6C45.5 2.4 45.3 2.3 45.1 2.3C44.9 2.3 44.6 2.4 44.5 2.6C44.3 2.8 44.2 3.1 44.1 3.6C44 4.1 43.9 4.8 43.9 5.7C43.9 6.6 44 7.3 44.1 7.8C44.2 8.3 44.4 8.6 44.5 8.8C44.6 9 44.8 9 45.1 9C45.3 9 45.5 9 45.7 8.8Z" fill="#6A3906"/>
<path d="M53.1 2.2C52.7 2.2 52.3 2.3 52 2.5C51.6 2.7 51.3 3 50.9 3.4L49.9 1.5C50.4 1 50.9 0.7 51.4 0.4C52 0.2 52.7 0 53.4 0C54.1 0 54.7 0.1 55.3 0.4C55.9 0.7 56.3 1 56.6 1.5C56.9 2 57.1 2.6 57.1 3.2C57.1 3.8 57 4.4 56.7 4.9C56.5 5.4 56.1 6 55.5 6.6L53.3 8.9H57.2V11.1H50.6L50.2 9.2L53.1 6.2C53.6 5.7 54 5.2 54.2 4.8C54.4 4.4 54.5 4 54.5 3.6C54.5 3.2 54.4 2.9 54.1 2.6C53.9 2.3 53.6 2.2 53.1 2.2Z" fill="#6A3906"/>
<path d="M63 11.2V9.10001H58.4V7.30001L62.2 0.200012H65.5V7.00001H66.7V9.00001H65.5V11.1H63V11.2ZM63 7.00001V2.50001L60.8 7.00001H63Z" fill="#6A3906"/>
<path d="M69.6 8.3C70.1 8.3 70.5 8 70.8 7.4C71.1 6.8 71.3 5.8 71.3 4.3V0.2H73.6V4C73.6 4.4 73.6 4.7 73.6 5.1C73.7 6.1 74 6.8 74.3 7.4C74.6 8 75 8.3 75.5 8.4L75 10.8C74.5 10.7 74.1 10.5 73.7 10.2C73.3 9.9 73 9.4 72.7 8.7C72.4 9.3 71.9 9.8 71.4 10.2C70.9 10.6 70.3 10.8 69.7 10.8V8.3H69.6ZM74.2 3.9H75.7V0.1H77.7V11.1H75.7V6H74.2V3.9ZM78.2 0H80.5V11.1H78.2V0Z" fill="#6A3906"/>
<path d="M81.8 4.7H86V3.9H88.5V4.7H92.7V6.7H81.7V4.7H81.8ZM82.1 2.4C83.5 2.4 84.5 2.3 85.1 2.2C85.7 2.2 86 2 86 1.9V1.8H82.2V0H92.3V1.8H88.5C88.5 1.9 88.5 2 88.5 2C88.8 2.1 89.4 2.1 90.1 2.2C90.8 2.3 91.7 2.3 92.5 2.3L92.4 4C91.2 3.9 90.2 3.9 89.4 3.8C88.6 3.7 87.9 3.6 87.3 3.4C86.3 3.8 84.6 4 82.1 4.1V2.4ZM82.9 10.8C82.4 10.5 82.2 10 82.2 9.2C82.2 8.5 82.4 7.9 82.9 7.6C83.4 7.3 84.1 7.1 85.1 7.1H89.5C90.5 7.1 91.2 7.3 91.7 7.6C92.2 7.9 92.4 8.4 92.4 9.2C92.4 9.9 92.2 10.5 91.7 10.8C91.2 11.1 90.5 11.3 89.5 11.3H85.1C84.1 11.2 83.4 11.1 82.9 10.8ZM85.3 9.5H89.3C89.6 9.5 89.8 9.4 89.8 9.2C89.8 9 89.6 8.9 89.3 8.9H85.3C85 8.9 84.8 9 84.8 9.2C84.8 9.4 85 9.5 85.3 9.5Z" fill="#6A3906"/>
<path d="M95.2 7.1C95.6 6.4 95.9 5.5 95.9 4.3V0.2H98.4V4C98.4 4.3 98.4 4.6 98.4 4.9C98.5 5.5 98.8 6 99.1 6.6C99.4 7.1 99.8 7.6 100.2 7.9C100.6 8.3 101 8.5 101.5 8.7L100.3 10.8C99.7 10.6 99.2 10.2 98.7 9.8C98.3 9.4 97.9 8.8 97.5 8.2C97.1 9 96.5 9.6 95.8 10.1C95.1 10.6 94.3 10.8 93.5 10.9V8.3C94.2 8.2 94.8 7.7 95.2 7.1ZM101.8 0H104.3V11.1H101.8V0Z" fill="#6A3906"/>
<path d="M1 27.8C0.3 27.2 0 26.4 0 25.3V18.7C0 17.6 0.3 16.8 1 16.2C1.7 15.6 2.6 15.4 3.9 15.4C5.2 15.4 6.1 15.7 6.8 16.2C7.5 16.8 7.8 17.6 7.8 18.7V25.3C7.8 26.4 7.5 27.2 6.8 27.8C6.1 28.4 5.2 28.6 3.9 28.6C2.7 28.6 1.7 28.3 1 27.8ZM4 25.9C4.3 25.9 4.5 25.8 4.6 25.6C4.7 25.4 4.8 25.1 4.8 24.7V19.3C4.8 18.9 4.7 18.6 4.6 18.4C4.5 18.2 4.2 18.1 4 18.1C3.4 18.1 3.1 18.5 3.1 19.3V24.7C3.1 25.5 3.4 25.9 4 25.9ZM8.2 20.5H9.6V15.2H12.7V28.9H9.6V23.1H8.2V20.5Z" fill="#6A3906"/>
<path d="M14.5 18.6H19.4C19.5 18.4 19.6 18.1 19.6 17.8H14.5V15.5H22.8V17C22.8 17.8 22.7 18.3 22.5 18.7H22.8V20.6H17.8C17.7 20.7 17.7 20.8 17.7 20.9C17.7 21.2 17.9 21.3 18.2 21.4C18.5 21.5 19.1 21.6 19.9 21.6C21 21.6 22 21.5 23.1 21.3L23.5 23.5C22.6 23.8 21.3 23.9 19.7 23.9C17.9 23.9 16.6 23.7 15.8 23.3C15 22.9 14.6 22.4 14.6 21.7C14.6 21.2 14.7 20.8 14.9 20.5H14.6V18.6H14.5ZM18 28.8C17.1 28.6 16.5 28.3 16.1 27.9C15.7 27.5 15.5 26.9 15.5 26.3V24.3H18.6V25.8C18.6 26 18.7 26.1 18.8 26.2C18.9 26.3 19.2 26.4 19.7 26.4C20.1 26.5 20.8 26.5 21.6 26.5C23.9 26.5 25.9 26.3 27.5 26V28.6C26.7 28.8 25.7 28.9 24.7 29C23.7 29.1 22.6 29.1 21.6 29.1C20.1 29.1 18.9 29 18 28.8ZM24.3 15.2H27.4V24.6H24.3V15.2Z" fill="#6A3906"/>
<path d="M29.4 18.7C29.4 17.6 29.7 16.8 30.4 16.2C31.1 15.6 32.1 15.4 33.4 15.4C34.7 15.4 35.7 15.7 36.4 16.2C37.1 16.8 37.4 17.6 37.4 18.7V25.3C37.4 26.4 37.1 27.2 36.4 27.8C35.7 28.4 34.7 28.6 33.4 28.6C32.1 28.6 31.1 28.3 30.4 27.8C29.7 27.2 29.4 26.4 29.4 25.3V18.7ZM33.5 25.9C33.8 25.9 34 25.8 34.2 25.6C34.4 25.4 34.4 25.1 34.4 24.7V19.3C34.4 18.9 34.3 18.6 34.2 18.4C34 18.2 33.8 18.1 33.5 18.1C32.9 18.1 32.6 18.5 32.6 19.3V24.7C32.6 25.5 32.9 25.9 33.5 25.9ZM39 15.2H42.1V28.9H39V15.2Z" fill="#6A3906"/>
<path d="M43.9 16.8C44 16.3 44.2 15.8 44.4 15.4H47.7C47.2 16.2 47 17 47 17.9C47 18.3 47.2 18.6 47.5 18.8C47.8 19 48.4 19.1 49.2 19.1C49.8 19.1 50.3 19.1 50.7 19C51.2 18.9 51.6 18.8 52.2 18.7L52.7 21.4C52.3 21.6 51.8 21.7 51.2 21.8C50.6 21.9 50 22 49.4 22C47.5 22 46 21.7 45.1 21.2C44.2 20.6 43.7 19.7 43.7 18.5C43.7 17.9 43.7 17.3 43.9 16.8ZM44.4 25H53.4V24.5H44.5V22.7H56.6V26.7H47.6V26.8C47.6 26.9 47.8 27.1 48.3 27.1C48.8 27.2 49.6 27.2 50.9 27.2C53.3 27.2 55.2 27.1 56.7 26.9V28.8C55.3 29 53.3 29.1 50.7 29.1C49.1 29.1 47.8 29 46.9 28.8C46 28.6 45.4 28.3 45 27.9C44.7 27.5 44.5 26.9 44.5 26.3V25H44.4ZM53.4 15.2H56.5V17.3H57.9V20H56.5V22.3H53.4V15.2Z" fill="#6A3906"/>
<path d="M61.8 25.6H63.3L62.9 18.6H66L66.1 25.6H67.1L67.2 18.6H70.2L69.8 25.6H71.3V28.3H61.9V25.6H61.8ZM61.9 15.5H71V18.2H61.9V15.5ZM71.9 15.2H75V28.9H71.9V15.2Z" fill="#6A3906"/>
<path d="M78 27.8C77.3 27.2 77 26.4 77 25.3V18.7C77 17.6 77.3 16.8 78 16.2C78.7 15.6 79.6 15.4 80.9 15.4C82.2 15.4 83.1 15.7 83.8 16.2C84.5 16.8 84.8 17.6 84.8 18.7V25.3C84.8 26.4 84.5 27.2 83.8 27.8C83.1 28.4 82.2 28.6 80.9 28.6C79.7 28.6 78.7 28.3 78 27.8ZM81 25.9C81.3 25.9 81.5 25.8 81.6 25.6C81.7 25.4 81.8 25.1 81.8 24.7V19.3C81.8 18.9 81.7 18.6 81.6 18.4C81.5 18.2 81.2 18.1 81 18.1C80.4 18.1 80.1 18.5 80.1 19.3V24.7C80.2 25.5 80.5 25.9 81 25.9ZM85.2 20.5H86.6V15.2H89.7V28.9H86.6V23.1H85.2V20.5Z" fill="#6A3906"/>
<path d="M93.8 27.9C93 27.5 92.4 27 91.9 26.2C91.5 25.4 91.3 24.4 91.3 23.1C91.3 21.8 91.4 20.5 91.5 19.2C91.7 17.8 91.9 16.6 92.1 15.5H95.4C94.8 17.8 94.5 20.2 94.5 22.8C94.5 23.5 94.6 24.1 94.7 24.5C94.8 24.9 95.1 25.2 95.4 25.4C95.7 25.6 96.1 25.7 96.7 25.7C97.2 25.7 97.7 25.7 98.2 25.6C98.7 25.5 99.1 25.4 99.6 25.2L100.1 27.9C99.7 28.1 99.2 28.3 98.6 28.4C98 28.5 97.4 28.6 96.8 28.6C95.7 28.4 94.6 28.3 93.8 27.9ZM101 15.2H104.1V20H105.5V22.6H104.1V28.9H101V15.2Z" fill="#6A3906"/>
<path d="M109.4 21.4H123V23.8H117.8V24.6H122.4V26.4C122.4 27.5 122.3 28.4 122.1 29.1L119 28.9C119.1 28.3 119.2 27.7 119.2 27H110V24.6H114.7V23.8H109.5V21.4H109.4ZM113.6 18.5C114.3 18.4 114.7 18.3 114.7 18.2V18H110V15.8H114.7V14.9H117.8V15.8H122.5V18H117.8V18.3V18.4C118.3 18.5 119 18.6 120 18.7C120.9 18.8 121.9 18.8 122.9 18.8L122.5 21.2C121.1 21.1 119.9 21 119 20.9C118.1 20.7 117.2 20.5 116.5 20.3C115.2 20.8 113.1 21.1 110 21.2V18.8C111.6 18.6 112.9 18.5 113.6 18.5Z" fill="#6A3906"/>
<path d="M123.8 25.5C124.4 25.5 125 25.1 125.3 24.3C125.7 23.6 125.9 22.3 125.9 20.5V18.2H124.1V15.5H130.6V18.2H128.8V20.2C128.8 20.6 128.8 21.1 128.8 21.5C129 22.7 129.2 23.6 129.7 24.3C130.1 25 130.6 25.4 131.1 25.5L130.5 28.4C129.9 28.3 129.3 28.1 128.9 27.7C128.4 27.3 128 26.7 127.7 25.9C127.3 26.7 126.8 27.3 126.1 27.8C125.5 28.3 124.8 28.5 124 28.6V25.5H123.8ZM129.9 20H131.4V15.3H133.9V28.9H131.4V22.6H129.9V20ZM134.5 15.2H137.3V28.9H134.5V15.2Z" fill="#6A3906"/>
</g>
<defs>
<clipPath id="clip0_1_23">
<rect width="137.3" height="29.2" fill="white"/>
</clipPath>
</defs>
</svg>
