<svg width="236" height="50" viewBox="0 0 236 50" fill="none" xmlns="http://www.w3.org/2000/svg">
<g clip-path="url(#clip0_1_3)">
<path d="M61.559 3.76712C60.8731 3.76712 60.1872 3.93836 59.6728 4.28082C58.9869 4.62329 58.4725 5.13699 57.7866 5.82192L56.0718 2.56849C56.9292 1.71233 57.7866 1.19863 58.6439 0.684931C59.6728 0.342466 60.7016 0 61.9019 0C63.1022 0 64.1311 0.171233 65.1599 0.684931C66.1888 1.19863 66.8746 1.71233 67.3891 2.56849C67.9035 3.42466 68.2464 4.45205 68.2464 5.47945C68.2464 6.50685 68.075 7.53425 67.5605 8.39041C67.2176 9.24657 66.5317 10.274 65.5029 11.3014L61.7304 15.2397H68.4179V19.0068H57.1007L56.4148 15.7534L61.3875 10.6164C62.2449 9.76027 62.9308 8.90411 63.2737 8.21918C63.6167 7.53425 63.7881 6.84931 63.7881 6.16438C63.7881 5.47945 63.6167 4.96575 63.1022 4.45205C62.9308 3.93836 62.2449 3.76712 61.559 3.76712Z" fill="white"/>
<path d="M72.5333 2.22603C73.7336 0.684931 75.2769 0 77.3345 0C79.2207 0 80.9355 0.684932 82.1358 2.05479C83.3361 3.42466 83.8505 5.99315 83.8505 9.41781C83.8505 13.0137 83.3361 15.411 82.1358 16.7808C80.9355 18.1507 79.3922 18.8356 77.3345 18.8356C75.4483 18.8356 73.7336 18.1507 72.5333 16.7808C71.333 15.411 70.8185 12.8425 70.8185 9.41781C70.8185 5.99315 71.333 3.59589 72.5333 2.22603ZM78.3634 15.0685C78.7063 14.726 78.8778 14.2123 79.0493 13.3562C79.2207 12.5 79.3922 11.3014 79.3922 9.76027C79.3922 8.21918 79.2207 7.02055 79.0493 6.16438C78.8778 5.30822 78.5349 4.79452 78.3634 4.45205C78.0204 4.10959 77.6775 3.93836 77.3345 3.93836C76.9916 3.93836 76.4772 4.10959 76.3057 4.45205C75.9627 4.79452 75.7913 5.30822 75.6198 6.16438C75.4483 7.02055 75.2769 8.21918 75.2769 9.76027C75.2769 11.3014 75.4483 12.5 75.6198 13.3562C75.7913 14.2123 76.1342 14.726 76.3057 15.0685C76.4772 15.411 76.8201 15.411 77.3345 15.411C77.6775 15.411 78.0204 15.411 78.3634 15.0685Z" fill="white"/>
<path d="M91.0524 3.76712C90.3665 3.76712 89.6806 3.93836 89.1662 4.28082C88.4803 4.62329 87.9659 5.13699 87.28 5.82192L85.5653 2.56849C86.4226 1.71233 87.28 1.19863 88.1374 0.684931C89.1662 0.342466 90.3665 0 91.5668 0C92.7671 0 93.796 0.171233 94.8248 0.684931C95.8537 1.19863 96.5396 1.71233 97.054 2.56849C97.5684 3.42466 97.9113 4.45205 97.9113 5.47945C97.9113 6.50685 97.7399 7.53425 97.2255 8.39041C96.8825 9.24657 96.1966 10.274 95.1678 11.3014L91.3954 15.2397H98.0828V19.0068H86.7656L86.0797 15.7534L91.0524 10.6164C91.9098 9.76027 92.5957 8.90411 92.9386 8.21918C93.2816 7.53425 93.453 6.84931 93.453 6.16438C93.453 5.47945 93.2816 4.96575 92.7671 4.45205C92.4242 3.93836 91.9098 3.76712 91.0524 3.76712Z" fill="white"/>
<path d="M108.028 19.1781V15.5822H100.141V12.5L106.656 0.342468H112.315V11.9863H114.373V15.411H112.315V19.0069H108.028V19.1781ZM108.028 11.9863V4.28082L104.256 11.9863H108.028Z" fill="white"/>
<path d="M119.346 14.2123C120.203 14.2123 120.889 13.6986 121.403 12.6712C121.918 11.6438 122.261 9.93151 122.261 7.36301V0.342466H126.204V6.84931C126.204 7.53425 126.204 8.04794 126.204 8.73288C126.376 10.4452 126.89 11.6438 127.405 12.6712C127.919 13.6986 128.605 14.2123 129.462 14.3836L128.605 18.4931C127.748 18.3219 127.062 17.9795 126.376 17.4658C125.69 16.9521 125.176 16.0959 124.661 14.8973C124.147 15.9247 123.289 16.7808 122.432 17.4658C121.575 18.1507 120.546 18.4931 119.517 18.4931V14.2123H119.346ZM127.233 6.67808H129.805V0.171233H133.235V19.0068H129.805V10.274H127.233V6.67808ZM134.092 0H138.036V19.0068H134.092V0Z" fill="white"/>
<path d="M140.265 8.04794H147.467V6.67808H151.754V8.04794H158.956V11.4726H140.094V8.04794H140.265ZM140.78 4.10959C143.18 4.10959 144.895 3.93836 145.924 3.76712C146.953 3.76712 147.467 3.42466 147.467 3.25342V3.08219H140.951V0H158.27V3.08219H151.754C151.754 3.25342 151.754 3.42466 151.754 3.42466C152.268 3.59589 153.297 3.59589 154.498 3.76712C155.698 3.93836 157.241 3.93836 158.613 3.93836L158.441 6.84931C156.384 6.67808 154.669 6.67808 153.297 6.50685C151.925 6.33562 150.725 6.16438 149.696 5.82192C147.982 6.50685 145.067 6.84931 140.78 7.02055V4.10959ZM142.152 18.4931C141.294 17.9795 140.951 17.1233 140.951 15.7534C140.951 14.5548 141.294 13.5274 142.152 13.0137C143.009 12.5 144.209 12.1575 145.924 12.1575H153.469C155.183 12.1575 156.384 12.5 157.241 13.0137C158.099 13.5274 158.441 14.3836 158.441 15.7534C158.441 16.9521 158.099 17.9795 157.241 18.4931C156.384 19.0068 155.183 19.3493 153.469 19.3493H145.924C144.209 19.1781 143.009 19.0068 142.152 18.4931ZM146.267 16.2671H153.126C153.64 16.2671 153.983 16.0959 153.983 15.7534C153.983 15.411 153.64 15.2397 153.126 15.2397H146.267C145.752 15.2397 145.409 15.411 145.409 15.7534C145.409 16.0959 145.752 16.2671 146.267 16.2671Z" fill="white"/>
<path d="M163.243 12.1575C163.929 10.9589 164.443 9.41781 164.443 7.36301V0.342466H168.73V6.84931C168.73 7.36301 168.73 7.87671 168.73 8.39041C168.901 9.41781 169.416 10.274 169.93 11.3014C170.445 12.1575 171.13 13.0137 171.816 13.5274C172.502 14.2123 173.188 14.5548 174.046 14.8973L171.988 18.4931C170.959 18.1507 170.102 17.4658 169.244 16.7808C168.558 16.0959 167.872 15.0685 167.187 14.0411C166.501 15.411 165.472 16.4384 164.272 17.2945C163.071 18.1507 161.699 18.4931 160.328 18.6644V14.2123C161.528 14.0411 162.557 13.1849 163.243 12.1575ZM174.56 0H178.847V19.0068H174.56V0Z" fill="white"/>
<path d="M1.71473 47.6027C0.51442 46.5753 0 45.2055 0 43.3219V32.0206C0 30.137 0.51442 28.7671 1.71473 27.7397C2.91505 26.7123 4.45831 26.3699 6.68746 26.3699C8.91662 26.3699 10.4599 26.8836 11.6602 27.7397C12.8605 28.7671 13.3749 30.137 13.3749 32.0206V43.3219C13.3749 45.2055 12.8605 46.5753 11.6602 47.6027C10.4599 48.6301 8.91662 48.9726 6.68746 48.9726C4.62978 48.9726 2.91505 48.4589 1.71473 47.6027ZM6.85894 44.3493C7.37336 44.3493 7.71631 44.1781 7.88778 43.8356C8.05925 43.4932 8.23073 42.9795 8.23073 42.2945V33.048C8.23073 32.363 8.05925 31.8493 7.88778 31.5069C7.71631 31.1644 7.20189 30.9932 6.85894 30.9932C5.8301 30.9932 5.31568 31.6781 5.31568 33.048V42.2945C5.31568 43.6644 5.8301 44.3493 6.85894 44.3493ZM14.0608 35.1027H16.4615V26.0274H21.7771V49.4863H16.4615V39.5548H14.0608V35.1027Z" fill="white"/>
<path d="M24.8636 31.8493H33.2658C33.4373 31.5069 33.6088 30.9932 33.6088 30.4795H24.8636V26.5411H39.0959V29.1096C39.0959 30.4795 38.9245 31.3356 38.5815 32.0206H39.0959V35.274H30.5223C30.3508 35.4452 30.3508 35.6164 30.3508 35.7877C30.3508 36.3014 30.6937 36.4726 31.2082 36.6438C31.7226 36.8151 32.7514 36.9863 34.1232 36.9863C36.0094 36.9863 37.7242 36.8151 39.6104 36.4726L40.2963 40.2397C38.753 40.7534 36.5238 40.9247 33.7803 40.9247C30.6937 40.9247 28.4646 40.5822 27.0928 39.8973C25.721 39.2123 25.0351 38.3562 25.0351 37.1575C25.0351 36.3014 25.2066 35.6164 25.5495 35.1027H25.0351V31.8493H24.8636ZM30.8652 49.3151C29.322 48.9726 28.2931 48.4589 27.6072 47.774C26.9213 47.089 26.5784 46.0616 26.5784 45.0343V41.6096H31.8941V44.1781C31.8941 44.5206 32.0655 44.6918 32.237 44.863C32.4085 45.0343 32.9229 45.2055 33.7803 45.2055C34.4662 45.3767 35.6665 45.3767 37.0383 45.3767C40.9822 45.3767 44.4116 45.0343 47.1552 44.5206V48.9726C45.7834 49.3151 44.0687 49.4863 42.3539 49.6575C40.6392 49.8288 38.753 49.8288 37.0383 49.8288C34.4662 49.8288 32.4085 49.6575 30.8652 49.3151ZM41.668 26.0274H46.9837V42.1233H41.668V26.0274Z" fill="white"/>
<path d="M50.4132 32.0206C50.4132 30.137 50.9276 28.7671 52.1279 27.7397C53.3282 26.7123 55.043 26.3699 57.2721 26.3699C59.5013 26.3699 61.216 26.8836 62.4163 27.7397C63.6167 28.7671 64.1311 30.137 64.1311 32.0206V43.3219C64.1311 45.2055 63.6167 46.5753 62.4163 47.6027C61.216 48.6301 59.5013 48.9726 57.2721 48.9726C55.043 48.9726 53.3282 48.4589 52.1279 47.6027C50.9276 46.5753 50.4132 45.2055 50.4132 43.3219V32.0206ZM57.4436 44.3493C57.958 44.3493 58.301 44.1781 58.6439 43.8356C58.9869 43.4932 58.9869 42.9795 58.9869 42.2945V33.048C58.9869 32.363 58.8154 31.8493 58.6439 31.5069C58.301 31.1644 57.958 30.9932 57.4436 30.9932C56.4148 30.9932 55.9003 31.6781 55.9003 33.048V42.2945C55.9003 43.6644 56.4148 44.3493 57.4436 44.3493ZM66.8746 26.0274H72.1903V49.4863H66.8746V26.0274Z" fill="white"/>
<path d="M75.2768 28.7671C75.4483 27.911 75.7913 27.0548 76.1342 26.3699H81.7928C80.9355 27.7397 80.5925 29.1096 80.5925 30.6507C80.5925 31.3356 80.9355 31.8493 81.4499 32.1918C81.9643 32.5343 82.9932 32.7055 84.3649 32.7055C85.3938 32.7055 86.2511 32.7055 86.937 32.5343C87.7944 32.363 88.4803 32.1918 89.5091 32.0206L90.3665 36.6438C89.6806 36.9863 88.8232 37.1575 87.7944 37.3288C86.7656 37.5 85.7367 37.6712 84.7079 37.6712C81.4499 37.6712 78.8778 37.1575 77.3345 36.3014C75.7913 35.274 74.9339 33.7329 74.9339 31.6781C74.9339 30.6507 74.9339 29.6233 75.2768 28.7671ZM76.1342 42.8082H91.5668V41.9521H76.3057V38.8699H97.054V45.7192H81.6214V45.8904C81.6214 46.0616 81.9643 46.4041 82.8217 46.4041C83.679 46.5753 85.0508 46.5754 87.28 46.5754C91.3954 46.5754 94.6533 46.4041 97.2254 46.0616V49.3151C94.8248 49.6575 91.3954 49.8288 86.937 49.8288C84.1935 49.8288 81.9643 49.6575 80.4211 49.3151C78.8778 48.9726 77.8489 48.4589 77.1631 47.774C76.6486 47.089 76.3057 46.0616 76.3057 45.0343V42.8082H76.1342ZM91.5668 26.0274H96.8825V29.6233H99.2831V34.2466H96.8825V38.1849H91.5668V26.0274Z" fill="white"/>
<path d="M105.971 43.8356H108.543L107.857 31.8493H113.172L113.344 43.8356H115.059L115.23 31.8493H120.374L119.688 43.8356H122.261V48.4589H106.142V43.8356H105.971ZM106.142 26.5411H121.746V31.1644H106.142V26.5411ZM123.289 26.0274H128.605V49.4863H123.289V26.0274Z" fill="white"/>
<path d="M133.749 47.6027C132.549 46.5753 132.035 45.2055 132.035 43.3219V32.0206C132.035 30.137 132.549 28.7671 133.749 27.7397C134.95 26.7123 136.493 26.3699 138.722 26.3699C140.951 26.3699 142.494 26.8836 143.695 27.7397C144.895 28.7671 145.409 30.137 145.409 32.0206V43.3219C145.409 45.2055 144.895 46.5753 143.695 47.6027C142.494 48.6301 140.951 48.9726 138.722 48.9726C136.664 48.9726 134.95 48.4589 133.749 47.6027ZM138.893 44.3493C139.408 44.3493 139.751 44.1781 139.922 43.8356C140.094 43.4932 140.265 42.9795 140.265 42.2945V33.048C140.265 32.363 140.094 31.8493 139.922 31.5069C139.751 31.1644 139.236 30.9932 138.893 30.9932C137.865 30.9932 137.35 31.6781 137.35 33.048V42.2945C137.522 43.6644 138.036 44.3493 138.893 44.3493ZM146.095 35.1027H148.496V26.0274H153.812V49.4863H148.496V39.5548H146.095V35.1027Z" fill="white"/>
<path d="M160.842 47.774C159.47 47.089 158.441 46.2329 157.584 44.863C156.898 43.4932 156.555 41.7808 156.555 39.5548C156.555 37.3288 156.727 35.1027 156.898 32.8767C157.241 30.4795 157.584 28.4247 157.927 26.5411H163.586C162.557 30.4795 162.042 34.589 162.042 39.0411C162.042 40.2397 162.214 41.2671 162.385 41.9521C162.557 42.637 163.071 43.1507 163.586 43.4932C164.1 43.8356 164.786 44.0069 165.815 44.0069C166.672 44.0069 167.53 44.0069 168.387 43.8356C169.244 43.6644 169.93 43.4932 170.788 43.1507L171.645 47.774C170.959 48.1164 170.102 48.4589 169.073 48.6301C168.044 48.8014 167.015 48.9726 165.986 48.9726C164.1 48.6301 162.214 48.4589 160.842 47.774ZM173.188 26.0274H178.504V34.2466H180.904V38.6986H178.504V49.4863H173.188V26.0274Z" fill="white"/>
<path d="M187.592 36.6438H210.912V40.7534H201.996V42.1233H209.884V45.2055C209.884 47.089 209.712 48.6301 209.369 49.8288L204.053 49.4863C204.225 48.4589 204.396 47.4315 204.396 46.2329H188.621V42.1233H196.68V40.7534H187.763V36.6438H187.592ZM194.794 31.6781C195.994 31.5069 196.68 31.3356 196.68 31.1644V30.8219H188.621V27.0548H196.68V25.5137H201.996V27.0548H210.055V30.8219H201.996V31.3356V31.5069C202.853 31.6781 204.053 31.8493 205.768 32.0206C207.311 32.1918 209.026 32.1918 210.741 32.1918L210.055 36.3014C207.654 36.1301 205.597 35.9589 204.053 35.7877C202.51 35.4452 200.967 35.1027 199.767 34.7603C197.537 35.6164 193.936 36.1301 188.621 36.3014V32.1918C191.364 31.8493 193.594 31.6781 194.794 31.6781Z" fill="white"/>
<path d="M212.284 43.6644C213.313 43.6644 214.342 42.9795 214.856 41.6096C215.542 40.411 215.885 38.1849 215.885 35.1027V31.1644H212.799V26.5411H223.944V31.1644H220.858V34.5891C220.858 35.274 220.858 36.1301 220.858 36.8151C221.201 38.8699 221.544 40.411 222.401 41.6096C223.087 42.8082 223.944 43.4932 224.802 43.6644L223.773 48.6301C222.744 48.4589 221.715 48.1164 221.029 47.4315C220.172 46.7466 219.486 45.7192 218.972 44.3493C218.286 45.7192 217.428 46.7466 216.228 47.6027C215.199 48.4589 213.999 48.8014 212.627 48.9726V43.6644H212.284ZM222.744 34.2466H225.316V26.1986H229.603V49.4863H225.316V38.6986H222.744V34.2466ZM230.632 26.0274H235.433V49.4863H230.632V26.0274Z" fill="white"/>
</g>
<defs>
<clipPath id="clip0_1_3">
<rect width="235.433" height="50" fill="white"/>
</clipPath>
</defs>
</svg>
