<svg width="1920" height="422" viewBox="0 0 1920 422" fill="none" xmlns="http://www.w3.org/2000/svg">
<path d="M0 128.3C32.9 106.1 378.8 -11.4003 580.5 0.899725C782.2 13.1997 930.8 53.0997 1051.6 64.0997C1172.4 75.0997 1346.5 89.6997 1451.3 133.7C1548.8 174.6 1585.7 149.5 1671.6 180.4C1757.6 211.3 1806.8 249.8 1619.6 264.6C1526 272 1286.3 295.3 1032.5 312.8C778.7 330.3 510.8 342 360.8 326.3C60.8 294.9 0.0999908 264.6 0.0999908 264.6V128.3H0Z" fill="#E2F5A2"/>
<path d="M584.6 4.19969C785 16.3997 933.4 55.6997 1054 66.5997C1175.3 77.5997 1348.4 92.0997 1452.3 135.2C1464.3 140.2 1475.4 144.1 1485.8 147.3C1559.8 170 1597.9 154.3 1671.6 181.3C1755.7 212.1 1802.9 249.8 1617.7 264.5C1531.8 271.4 1324.6 291.4 1096.7 308C1076.2 309.5 1055.5 311 1034.7 312.4C783 329.7 517.3 341.4 367.6 326C71.7 295.2 10.5 265.4 9.3 265.3C8.7 265.2 6.6 131.1 5 130.6C14 123 56.9 105.1 119.6 85.2997C245.4 45.1997 444.8 -4.20031 584.6 4.19969Z" fill="#E1F4A1"/>
<path d="M588.7 7.49972C787.9 19.5997 935.9 58.1997 1056.4 69.0997C1178.3 80.0997 1350.1 94.6997 1453.3 136.7C1465.3 141.6 1476.4 145.5 1486.7 148.6C1560.8 170.9 1599.5 155.4 1671.6 182.3C1753.8 212.9 1799 249.8 1615.8 264.4C1529.8 271.4 1324.4 291.2 1098.4 307.7C1078 309.2 1057.4 310.6 1036.8 312.1C787.2 329.3 523.7 340.8 374.3 325.7C82.5 295.5 20.9 266.3 18.4 266C17.2 265.9 12.9 134 9.80005 133C17.1 125 58 107 121.3 87.1997C246 47.5997 444.5 -1.10028 588.7 7.49972Z" fill="#E1F4A0"/>
<path d="M592.8 10.7996C790.8 22.6996 938.4 60.7996 1058.8 71.5996C1181.3 82.5996 1351.9 97.1996 1454.3 138.3C1466.3 143.1 1477.3 146.9 1487.6 149.9C1561.9 171.8 1601 156.4 1671.6 183.2C1751.9 213.7 1795.1 249.7 1613.9 264.2C1527.8 271.3 1324.1 290.9 1100.1 307.2C1079.8 308.7 1059.4 310.1 1038.9 311.5C791.4 328.5 530.1 339.9 381 325.1C93.3 295.5 31.2 266.9 27.5 266.5C25.7 266.3 19.3 136.8 14.6 135.3C20.1 126.9 59.3 108.9 123 88.8996C246.7 50.2996 444.2 2.09959 592.8 10.7996Z" fill="#E0F39F"/>
<path d="M596.9 14.0997C793.6 25.8997 941 63.2997 1061.2 74.0997C1184.2 84.9997 1353.7 99.6997 1455.4 139.8C1467.4 144.5 1478.4 148.2 1488.6 151.2C1563.1 172.6 1602.7 157.5 1671.6 184.2C1750 214.6 1791.3 249.7 1612 264.2C1525.8 271.3 1323.9 290.8 1101.8 307C1081.7 308.5 1061.4 309.9 1041 311.3C795.6 328.2 536.5 339.8 387.7 325C104.1 296.7 41.5 268 36.6 267.4C34.2 267.1 25.6 139.9 19.4 137.9C23.2 129.2 60.5 111 124.7 90.9997C247.4 52.6997 443.9 5.19971 596.9 14.0997Z" fill="#DFF39E"/>
<path d="M600.9 17.3998C796.4 29.0998 943.4 65.8998 1063.6 76.4998C1187.2 87.3998 1355.5 102.1 1456.4 141.2C1468.4 145.8 1479.4 149.5 1489.5 152.3C1564.1 173.3 1604.2 158.3 1671.6 184.9C1748.2 215.1 1787.4 249.4 1610 263.8C1523.8 271 1323.5 290.3 1103.4 306.3C1083.4 307.8 1063.3 309.2 1043.1 310.6C799.8 327.3 542.9 338.9 394.4 324.3C114.9 296.8 51.9 268.4 45.7 267.7C42.7 267.3 32 142.4 24.2 139.9C26.2 130.8 61.7 112.4 126.4 92.4998C248 55.1998 443.5 8.39981 600.9 17.3998Z" fill="#DFF29D"/>
<path d="M605 20.6998C799.3 32.2998 946 68.3997 1066 78.9997C1190.2 89.8997 1357.4 104.6 1457.4 142.7C1469.4 147.3 1480.3 150.8 1490.4 153.6C1565.2 174.1 1605.7 159.4 1671.5 185.9C1746.2 216 1783.4 249.4 1608 263.7C1521.7 271 1323.2 290.1 1105 306C1085.2 307.4 1065.2 308.9 1045.1 310.2C803.9 326.7 549.2 338.3 401 324C125.6 297.3 62.1 269.3 54.7 268.4C51 268 38.2 145.4 28.9 142.4C29.1 133 62.8 114.4 128 94.4997C248.6 57.5997 443.2 11.4998 605 20.6998Z" fill="#DEF19C"/>
<path d="M609.1 23.8997C802.1 35.2997 948.5 70.8997 1068.4 81.3997C1193.1 92.2997 1359.2 106.9 1458.5 144.1C1470.4 148.6 1481.4 152 1491.4 154.7C1566.4 174.8 1607.4 160.2 1671.6 186.6C1744.4 216.5 1779.6 249.1 1606.2 263.4C1519.8 270.8 1323 289.7 1106.8 305.4C1087.1 306.8 1067.3 308.2 1047.3 309.6C808.2 326 555.7 337.5 407.8 323.4C136.5 297.6 72.7 270 64 269C59.7 268.5 44.8 148.2 33.9 144.7C32.4 134.9 64.2 116.2 129.8 96.2997C249.2 59.9997 442.9 14.6997 609.1 23.8997Z" fill="#DDF19B"/>
<path d="M613.2 27.1998C805 38.4998 951.1 73.3998 1070.8 83.8998C1196.1 94.7998 1361 109.4 1459.5 145.7C1471.4 150.1 1482.3 153.5 1492.3 156.1C1567.4 175.7 1608.9 161.4 1671.6 187.7C1742.5 217.5 1775.7 249.2 1604.3 263.4C1517.8 270.9 1322.8 289.6 1108.5 305.2C1089 306.6 1069.3 308 1049.5 309.4C812.5 325.6 562.2 337.1 414.7 323.2C147.4 298 83.1 270.8 73.2 269.7C68.3 269.1 51.2 151.1 38.8 147.1C35.5 137 65.5 118.1 131.6 98.1998C249.9 62.4998 442.5 17.7998 613.2 27.1998Z" fill="#DCF09A"/>
<path d="M617.3 30.4996C807.9 41.2996 953.6 75.8996 1073.2 86.3996C1199.1 97.2996 1362.8 111.9 1460.5 147.2C1472.4 151.5 1483.3 154.8 1493.2 157.3C1568.5 176.5 1610.4 162.3 1671.5 188.5C1740.5 218.1 1771.7 248.6 1602.3 263.1C1515.7 270.5 1322.4 289.2 1110.1 304.6C1090.7 306 1071.1 307.4 1051.5 308.7C816.6 324.7 568.5 336.2 421.3 322.6C158.1 298.2 93.3999 271.4 82.1999 270.1C76.6999 269.5 57.4999 153.7 43.4999 149.2C38.3999 138.7 66.4999 119.7 133.2 99.7996C250.5 64.8996 442.2 20.5996 617.3 30.4996Z" fill="#DCEF99"/>
<path d="M621.4 33.7997C810.8 44.3997 956.2 78.4997 1075.6 88.8997C1202.1 99.6997 1364.7 114.3 1461.5 148.7C1473.4 152.9 1484.3 156.1 1494.2 158.6C1569.7 177.3 1612 163.3 1671.6 189.5C1738.7 218.9 1767.9 248.6 1600.5 263.1C1513.9 270.6 1322.3 289.1 1111.9 304.4C1092.6 305.8 1073.2 307.2 1053.7 308.5C820.9 324.4 575 335.9 428.1 322.4C169 298.7 103.8 272.4 91.4 270.9C85.3 270.2 63.9 156.8 48.4 151.8C41.6 141 67.8 121.7 135 101.8C251.1 67.2997 441.9 23.6997 621.4 33.7997Z" fill="#DBEF98"/>
<path d="M625.4 37.0997C813.5 47.5997 958.6 80.9997 1078 91.2997C1205 102.1 1366.5 116.7 1462.6 150.1C1474.5 154.2 1485.3 157.4 1495.2 159.7C1570.9 177.9 1613.6 164.2 1671.6 190.2C1736.8 219.5 1764 248.3 1598.5 262.7C1511.8 270.2 1322 288.7 1113.6 303.7C1094.5 305.1 1075.2 306.4 1055.9 307.8C825.3 323.5 581.5 335 434.9 321.8C179.9 298.9 114.3 273 100.6 271.4C93.9 270.6 70.4 159.5 53.3 154C44.7 142.8 69.1 123.4 136.8 103.5C251.7 69.6997 441.6 26.8997 625.4 37.0997Z" fill="#DAEE97"/>
<path d="M629.5 40.3996C816.4 50.6996 961.1 83.5996 1080.4 93.7996C1208 104.6 1368.3 119.1 1463.6 151.7C1475.5 155.8 1486.3 158.8 1496.1 161.1C1572 178.9 1615.1 165.3 1671.6 191.3C1734.9 220.4 1760.1 248.4 1596.6 262.7C1509.8 270.3 1321.7 288.6 1115.3 303.5C1096.3 304.9 1077.2 306.2 1058 307.5C829.5 323.1 588 334.5 441.6 321.5C190.7 299.3 124.6 273.8 109.8 272.1C102.5 271.2 76.8 162.4 58.2 156.4C47.8 144.9 70.4 125.3 138.6 105.4C252.3 72.0996 441.2 29.9996 629.5 40.3996Z" fill="#DAEE96"/>
<path d="M633.6 43.6997C819.3 53.8997 963.7 86.0997 1082.8 96.2997C1211 107.1 1370.2 121.6 1464.6 153.2C1476.5 157.2 1487.3 160.1 1497 162.3C1573 179.6 1616.6 166.2 1671.6 192.1C1732.9 221 1756.2 248.2 1594.7 262.5C1507.8 270.2 1321.5 288.3 1117 303C1098.2 304.4 1079.2 305.7 1060.1 307C833.7 322.4 594.4 333.8 448.3 321C201.5 299.5 135 274.5 118.9 272.6C111 271.7 83.2 165.1 63 158.7C50.9 146.8 71.6 127.1 140.3 107.2C253 74.4997 440.9 33.0997 633.6 43.6997Z" fill="#D9ED95"/>
<path d="M637.7 46.9997C822.1 57.0997 966.2 88.6997 1085.2 98.7997C1213.9 109.6 1372 124 1465.7 154.7C1477.6 158.6 1488.3 161.4 1498 163.6C1574.2 180.4 1618.2 167.2 1671.6 193.1C1731 221.9 1752.4 248.2 1592.8 262.4C1505.8 270.2 1321.2 288.1 1118.7 302.7C1100 304 1081.2 305.4 1062.2 306.6C837.9 321.8 600.8 333.2 455 320.7C212.3 299.9 145.3 275.4 128 273.3C119.5 272.3 89.5 168.1 67.8 161.1C53.9 148.9 72.8 128.9 141.9 109.1C253.6 76.8996 440.6 36.1997 637.7 46.9997Z" fill="#D8EC94"/>
<path d="M641.8 50.2996C825 60.1996 968.8 91.1996 1087.6 101.3C1216.9 112.1 1373.8 126.5 1466.7 156.2C1478.5 160 1489.3 162.8 1498.9 164.8C1575.3 181.1 1619.7 168.1 1671.6 193.9C1729.1 222.5 1748.5 247.9 1590.9 262.1C1503.9 269.9 1321 287.7 1120.4 302.1C1101.9 303.4 1083.2 304.7 1064.4 306C842.2 321.1 607.3 332.3 461.8 320.1C223.2 300.1 155.8 275.9 137.2 273.8C128.1 272.7 96 170.8 72.7 163.3C57 150.7 74.1 130.6 143.7 110.8C254.2 79.2996 440.3 39.2996 641.8 50.2996Z" fill="#D8EC93"/>
<path d="M645.9 53.5997C827.9 63.3997 971.3 93.7997 1090 103.7C1219.9 114.4 1375.7 128.8 1467.7 157.7C1479.5 161.4 1490.2 164.1 1499.8 166.1C1576.4 182 1621.2 169.2 1671.5 194.9C1727.1 223.3 1744.5 247.9 1588.9 262.1C1501.8 270 1320.6 287.6 1122 301.9C1103.6 303.2 1085 304.5 1066.4 305.8C846.3 320.7 613.6 331.9 468.4 320C233.9 300.7 166 277 146.2 274.7C136.5 273.6 100.6 177.8 77.4 165.9C58.1 156 75.2 132.7 145.3 112.8C254.8 81.6997 439.9 42.4997 645.9 53.5997Z" fill="#D7EB92"/>
<path d="M649.9 56.8998C830.6 66.5998 973.8 96.2998 1092.4 106.2C1222.9 116.9 1377.5 131.2 1468.8 159.2C1480.6 162.8 1491.3 165.4 1500.8 167.3C1577.6 182.7 1622.7 170.1 1671.6 195.7C1725.3 223.9 1740.7 247.7 1587 261.8C1499.8 269.8 1320.4 287.2 1123.7 301.3C1105.4 302.6 1087 303.9 1068.5 305.1C850.5 319.8 620 331 475.2 319.3C244.8 300.7 176.5 277.5 155.4 275C145 273.8 107.1 180.2 82.3001 168C61.4001 157.7 76.5001 134.2 147.1 114.4C255.4 84.0998 439.6 45.5998 649.9 56.8998Z" fill="#D6EA91"/>
<path d="M654 60.0997C833.5 69.5997 976.3 98.6997 1094.8 108.6C1225.8 119.3 1379.4 133.6 1469.8 160.6C1481.6 164.1 1492.3 166.7 1501.8 168.5C1578.8 183.4 1624.3 170.9 1671.6 196.6C1723.3 224.6 1736.8 247.6 1585.1 261.6C1497.8 269.7 1320.1 286.9 1125.4 300.9C1107.3 302.2 1089 303.5 1070.7 304.7C854.8 319.3 626.5 330.4 482 318.9C255.7 300.9 186.9 278.3 164.6 275.6C153.6 274.3 113.7 182.9 87.2 170.3C64.6 159.6 77.8001 136 148.9 116.2C256 86.4997 439.3 48.6997 654 60.0997Z" fill="#D5EA90"/>
<path d="M658.1 63.3997C836.4 72.7997 978.9 101.3 1097.2 111.1C1228.8 121.8 1381.2 136 1470.8 162.1C1482.6 165.5 1493.2 168 1502.7 169.7C1579.9 184.1 1625.7 171.8 1671.6 197.4C1721.4 225.2 1732.9 247.4 1583.2 261.3C1495.9 269.4 1319.9 286.5 1127.1 300.3C1109.1 301.6 1091 302.8 1072.8 304.1C859 318.5 632.9 329.6 488.7 318.4C266.5 301.1 197.2 278.9 173.7 276.2C162.1 274.8 120.1 185.6 92 172.6C67.7 161.4 78.9 137.8 150.6 118C256.6 88.8997 438.9 51.8997 658.1 63.3997Z" fill="#D5E98F"/>
<path d="M662.2 66.6997C839.2 75.9997 981.4 103.8 1099.6 113.6C1231.8 124.3 1383.1 138.4 1471.8 163.7C1483.6 167.1 1494.2 169.4 1503.6 171.1C1581 185 1627.1 172.9 1671.6 198.5C1719.5 226 1729 247.5 1581.3 261.4C1493.9 269.6 1319.6 286.5 1128.8 300.2C1111 301.5 1093 302.7 1074.9 303.9C863.2 318.1 639.3 329.2 495.4 318.2C277.3 301.6 207.6 279.9 182.8 277C170.6 275.6 126.6 188.4 96.8 175.2C70.9 163.6 80.1 139.8 152.3 120.1C257.2 91.1997 438.6 54.9997 662.2 66.6997Z" fill="#D4E98E"/>
<path d="M666.3 69.9996C842.1 79.1996 984 106.4 1102 116C1234.7 126.7 1384.9 140.7 1472.9 165.1C1484.7 168.4 1495.3 170.6 1504.6 172.2C1582.2 185.6 1628.6 173.7 1671.6 199.2C1717.5 226.5 1725.1 247.2 1579.4 261C1491.9 269.3 1319.4 286 1130.6 299.5C1112.9 300.8 1095.1 302 1077.1 303.2C867.5 317.3 645.9 328.3 502.2 317.6C288.3 301.7 218 280.5 192 277.4C179.2 275.9 133.1 190.9 101.7 177.3C74.1 165.3 81.4 141.4 154.1 121.7C257.8 93.5997 438.3 58.0996 666.3 69.9996Z" fill="#D3E88D"/>
<path d="M670.4 73.2996C845 82.2996 986.5 108.9 1104.5 118.5C1237.8 129.2 1386.9 143.1 1474 166.6C1485.8 169.8 1496.3 172 1505.6 173.5C1583.4 186.4 1630.1 174.6 1671.7 200.2C1715.7 227.2 1721.4 247.2 1577.6 260.9C1490 269.3 1319.2 285.8 1132.4 299.2C1114.8 300.4 1097.2 301.7 1079.4 302.9C871.9 316.8 652.5 327.7 509.1 317.3C299.3 302 228.6 281.3 201.3 278.1C187.9 276.5 139.7 193.7 106.7 179.7C77.4 167.3 82.8001 143.2 155.9 123.5C258.4 95.9996 438 61.2996 670.4 73.2996Z" fill="#D3E78C"/>
<path d="M674.4 76.5998C847.7 85.4998 988.9 111.5 1106.8 121C1240.7 131.6 1388.7 145.5 1474.9 168.1C1486.7 171.2 1497.2 173.3 1506.4 174.7C1584.3 187.1 1631.4 175.5 1671.5 201C1713.5 227.8 1717.3 247 1575.4 260.7C1487.7 269.1 1318.7 285.6 1133.8 298.7C1116.4 299.9 1098.8 301.2 1081.2 302.3C875.8 316.1 658.6 326.9 515.5 316.7C309.8 302.1 238.6 281.9 210.1 278.6C196.1 276.9 145.8 196.3 111.2 181.9C80.2 169 83.7 144.9 157.3 125.2C259 98.2998 437.6 64.3998 674.4 76.5998Z" fill="#D2E78B"/>
<path d="M678.5 79.8998C850.6 88.6998 991.5 114 1109.2 123.5C1243.6 134.1 1390.5 147.9 1476 169.6C1487.8 172.6 1498.3 174.6 1507.4 176C1585.5 187.9 1632.9 176.4 1671.6 202C1711.7 228.5 1713.5 247 1573.6 260.6C1485.9 269.1 1318.5 285.4 1135.6 298.4C1118.3 299.6 1100.9 300.8 1083.4 302C880.1 315.6 665.1 326.4 522.3 316.5C320.7 302.5 249.1 282.9 219.3 279.4C204.7 277.7 152.3 199.2 116.1 184.5C83.4 171.2 85 146.9 159.1 127.3C259.6 100.7 437.3 67.5998 678.5 79.8998Z" fill="#D1E68A"/>
<path d="M682.6 83.1998C853.5 91.8998 994 116.6 1111.6 126C1246.6 136.6 1392.4 150.3 1477 171.2C1488.8 174.1 1499.2 176 1508.3 177.4C1586.6 188.7 1634.2 177.4 1671.6 203C1709.7 229.2 1709.6 247 1571.7 260.5C1483.9 269.1 1318.3 285.2 1137.3 298C1120.2 299.2 1102.9 300.4 1085.6 301.6C884.4 315 671.6 325.7 529.2 316.1C331.7 302.8 259.6 283.7 228.7 280C213.5 278.2 159 201.9 121.2 186.8C86.8 173 86.4 148.7 161.1 129.1C260.2 103 437 70.6998 682.6 83.1998Z" fill="#D1E68A"/>
<path d="M686.7 86.4997C856.3 95.0997 996.6 119.1 1114 128.4C1249.6 139 1394.3 152.6 1478 172.6C1489.7 175.4 1500.2 177.3 1509.2 178.5C1587.7 189.3 1635.6 178.1 1671.5 203.8C1707.7 229.6 1705.6 246.8 1569.7 260.3C1481.8 269 1318 284.9 1138.9 297.6C1121.9 298.8 1104.8 300 1087.6 301.1C888.6 314.4 677.9 325 535.8 315.7C342.4 303 269.9 284.4 237.7 280.6C221.9 278.7 165.3 204.6 125.9 189.1C89.8 174.9 87.5 150.4 162.7 130.9C260.8 105.4 436.6 73.7997 686.7 86.4997Z" fill="#D0E589"/>
<path d="M690.8 89.7996C859.2 98.2996 999.1 121.6 1116.4 130.9C1252.6 141.5 1396.1 154.9 1479 174.1C1490.7 176.8 1501.2 178.6 1510.2 179.8C1588.9 190.1 1642.1 173.3 1671.6 204.7C1709.8 223.6 1701.8 246.7 1567.9 260.1C1479.9 268.9 1317.8 284.6 1140.7 297.1C1123.9 298.3 1106.9 299.5 1089.8 300.6C892.9 313.7 684.5 324.3 542.6 315.2C353.3 303.1 280.3 285.1 246.9 281.2C230.5 279.3 171.8 207.3 130.8 191.5C93 176.9 88.8 152.3 164.5 132.8C261.4 107.7 436.3 76.9996 690.8 89.7996Z" fill="#CFE488"/>
<path d="M694.8 93.0997C862 101.4 1001.6 124.2 1118.8 133.4C1255.5 144 1398 157.3 1480.1 175.6C1491.8 178.2 1502.2 179.9 1511.2 181C1590.1 190.8 1643.9 174 1671.6 205.6C1708.1 224.1 1697.9 246.6 1566 259.9C1478 268.8 1317.6 284.3 1142.4 296.7C1125.7 297.9 1108.9 299 1092 300.2C897.2 313.1 691 323.6 549.4 314.9C364.2 303.4 290.8 286 256.1 281.9C239 279.9 178.3 210.1 135.7 193.9C96.2 178.8 90.1 154.1 166.3 134.6C262 110.1 436 80.0997 694.8 93.0997Z" fill="#CEE487"/>
<path d="M698.9 96.3997C864.8 104.6 1004.1 126.7 1121.2 135.9C1258.5 146.4 1399.9 159.7 1481.1 177.2C1492.8 179.7 1503.2 181.3 1512.1 182.4C1591.2 191.6 1645.6 174.9 1671.6 206.6C1706.3 224.7 1694 246.7 1564 259.9C1475.9 268.8 1317.2 284.2 1144 296.4C1127.4 297.6 1110.8 298.7 1094 299.8C901.3 312.6 697.3 323 556 314.5C374.9 303.6 301 286.7 265.1 282.5C247.4 280.4 184.6 212.9 140.4 196.2C99.2 180.7 91.2 155.8 167.8 136.4C262.6 112.4 435.6 83.2997 698.9 96.3997Z" fill="#CEE386"/>
<path d="M703 99.5997C867.7 107.7 1006.7 129.2 1123.6 138.3C1261.5 148.8 1401.7 161.9 1482.1 178.6C1493.8 181 1504.1 182.5 1513 183.5C1592.3 192.2 1647.2 175.4 1671.5 207.4C1704.4 225 1690.1 246.5 1562 259.6C1473.8 268.6 1316.9 283.8 1145.6 295.9C1129.2 297.1 1112.6 298.2 1096 299.3C905.4 311.9 703.6 322.2 562.6 314C385.6 303.7 311.3 287.4 274.1 283C255.8 280.8 190.9 215.5 145.1 198.4C102.2 182.4 92.2 157.5 169.4 138.1C263.2 114.7 435.3 86.4997 703 99.5997Z" fill="#CDE285"/>
<path d="M707.1 102.9C870.6 110.9 1009.2 131.7 1126 140.7C1264.4 151.2 1403.6 164.2 1483.2 180C1494.9 182.3 1505.2 183.8 1514 184.7C1593.5 192.9 1649 176.1 1671.6 208.2C1702.8 225.4 1686.3 246.3 1560.2 259.3C1471.9 268.4 1316.7 283.4 1147.5 295.3C1131.2 296.4 1114.8 297.6 1098.3 298.6C909.8 311.1 710.2 321.2 569.5 313.4C396.7 303.7 321.8 288 283.4 283.5C264.5 281.3 197.5 218.1 150.1 200.7C105.5 184.3 93.6 159.2 171.3 139.9C263.8 117.1 435 89.5997 707.1 102.9Z" fill="#CCE284"/>
<path d="M711.2 106.2C873.4 114.1 1011.7 134.3 1128.4 143.2C1267.4 153.7 1405.5 166.5 1484.2 181.5C1495.9 183.7 1506.2 185.1 1514.9 185.9C1594.6 193.5 1650.6 176.8 1671.6 209.1C1701 225.8 1682.4 246.2 1558.3 259.2C1470 268.4 1316.5 283.2 1149.2 295C1133.1 296.1 1116.8 297.2 1100.5 298.3C914.1 310.6 716.7 320.7 576.3 313.1C407.6 304 332.3 288.9 292.6 284.2C273.1 281.9 204 220.9 155 203.1C108.6 186.2 94.9 161 173.1 141.8C264.4 119.4 434.7 92.7998 711.2 106.2Z" fill="#CCE183"/>
<path d="M715.3 109.5C876.3 117.3 1014.3 136.8 1130.8 145.7C1270.4 156.2 1407.4 168.9 1485.2 183.1C1496.9 185.2 1507.1 186.5 1515.8 187.3C1595.7 194.4 1652.3 177.7 1671.5 210.1C1699.1 226.4 1678.4 246.2 1556.3 259.1C1467.9 268.4 1316.1 283 1150.8 294.6C1134.8 295.7 1118.7 296.8 1102.5 297.9C918.2 310 723.1 320 582.9 312.8C418.3 304.3 342.5 289.7 301.6 284.9C281.5 282.5 210.3 223.7 159.7 205.5C111.6 188.2 96 162.8 174.7 143.7C265 121.7 434.3 95.8997 715.3 109.5Z" fill="#CBE182"/>
<path d="M719.3 112.8C879 120.5 1016.7 139.4 1133.2 148.2C1273.3 158.7 1409.2 171.2 1486.3 184.6C1498 186.6 1508.2 187.8 1516.8 188.5C1596.9 195 1654.1 178.4 1671.6 211C1697.5 226.8 1674.6 246.2 1554.5 258.9C1466 268.3 1316 282.8 1152.6 294.2C1136.8 295.3 1120.8 296.4 1104.7 297.4C922.5 309.4 729.6 319.2 589.8 312.3C429.3 304.4 353 290.4 310.9 285.4C290.2 283 216.9 226.3 164.7 207.8C114.9 190.1 97.3 164.6 176.6 145.4C265.5 124 434 99.0996 719.3 112.8Z" fill="#CAE081"/>
<path d="M723.4 116.1C881.9 123.7 1019.3 141.9 1135.6 150.7C1276.3 161.1 1411.1 173.5 1487.3 186.1C1499 188 1509.2 189.1 1517.8 189.8C1598.1 195.7 1655.8 179.2 1671.6 211.9C1695.7 227.3 1670.7 246.1 1552.5 258.8C1463.9 268.3 1315.6 282.6 1154.2 293.9C1138.5 295 1122.7 296.1 1106.8 297.1C926.7 308.9 736 318.6 596.5 312C440.1 304.6 363.4 291.3 320 286.2C298.7 283.7 223.3 229.2 169.5 210.3C118 192.1 98.5 166.5 178.3 147.4C266.1 126.3 433.7 102.3 723.4 116.1Z" fill="#C9DF80"/>
<path d="M727.5 119.4C884.8 126.9 1021.8 144.4 1138 153.2C1279.3 163.6 1413 175.8 1488.3 187.6C1500 189.4 1510.1 190.5 1518.7 191C1599.2 196.4 1657.5 179.9 1671.6 212.8C1693.9 227.8 1666.9 246 1550.6 258.6C1462 268.2 1315.4 282.3 1155.9 293.4C1140.3 294.5 1124.7 295.5 1108.9 296.6C930.9 308.2 742.4 317.8 603.2 311.6C450.9 304.8 373.7 292 329.1 286.8C307.2 284.2 229.7 232 174.3 212.6C121 194 99.6999 168.2 180 149.2C266.7 128.6 433.3 105.4 727.5 119.4Z" fill="#C9DF7F"/>
<path d="M731.6 122.7C887.6 130.4 1024.4 147 1140.4 155.6C1282.3 166 1414.9 178 1489.3 189.1C1501 190.8 1511.1 191.8 1519.6 192.3C1600.3 197.1 1659.1 180.7 1671.6 213.7C1692.2 228.2 1663 245.9 1548.7 258.4C1460 268.1 1315.1 282 1157.6 293C1142.2 294.1 1126.6 295.1 1111 296.1C935.1 307.6 748.8 317 609.9 311.1C461.7 304.8 384.1 292.7 338.2 287.3C315.7 284.6 236.1 234.6 179.1 214.8C124.1 195.7 100.9 169.8 181.6 150.9C267.3 130.9 433 109.2 731.6 122.7Z" fill="#C8DE7E"/>
<path d="M735.7 126C890.5 133.5 1026.9 149.5 1142.8 158.1C1285.2 168.5 1416.8 180.3 1490.4 190.6C1502.1 192.2 1512.2 193.1 1520.6 193.5C1601.5 197.7 1660.9 181.4 1671.6 214.6C1690.4 228.7 1659.1 245.9 1546.8 258.2C1458 268 1314.9 281.7 1159.3 292.5C1144 293.6 1128.6 294.6 1113.1 295.6C939.3 306.9 755.3 316.2 616.6 310.7C472.6 304.9 394.4 293.5 347.4 287.9C324.3 285.2 242.5 237.3 184.1 217.2C127.4 197.7 102.2 171.6 183.5 152.8C267.9 133.3 432.6 112.4 735.7 126Z" fill="#C7DD7D"/>
<path d="M739.8 129.3C893.4 136.7 1029.5 152.1 1145.3 160.6C1288.3 171 1418.7 182.6 1491.5 192.1C1503.2 193.6 1513.2 194.4 1521.6 194.8C1602.7 198.4 1662.7 182.2 1671.7 215.5C1688.7 229.1 1655.3 245.8 1545 258.1C1456.1 268 1314.8 281.5 1161.1 292.2C1146 293.2 1130.7 294.3 1115.4 295.3C943.7 306.4 761.9 315.6 623.5 310.4C483.6 305.2 405 294.4 356.7 288.7C333 285.9 249.1 240.2 189.1 219.7C130.7 199.7 103.6 173.5 185.4 154.8C268.5 135.6 432.3 115.5 739.8 129.3Z" fill="#C7DD7C"/>
<path d="M743.8 132.6C896.1 139.9 1031.9 154.6 1147.6 163.1C1291.2 173.5 1420.5 184.9 1492.4 193.6C1504.1 195 1514.1 195.7 1522.4 196C1603.7 199 1664.2 182.8 1671.5 216.4C1686.8 229.6 1651.2 245.7 1542.9 257.9C1454 267.9 1314.3 281.2 1162.6 291.7C1147.6 292.7 1132.5 293.7 1117.3 294.7C947.8 305.7 768.1 314.6 630 309.8C494.2 305.1 415.1 294.9 365.6 289.1C341.2 286.2 255.3 242.8 193.7 221.8C133.5 201.4 104.6 175 186.9 156.4C269.1 137.8 432 118.7 743.8 132.6Z" fill="#C6DC7B"/>
<path d="M747.9 135.8C899 143 1034.4 157.1 1150 165.5C1294.1 175.9 1422.4 187.1 1493.5 195C1505.1 196.3 1515.2 196.9 1523.4 197.2C1604.9 199.6 1666 183.5 1671.6 217.2C1685.1 229.9 1647.4 245.6 1541 257.6C1452 267.7 1314.1 280.8 1164.4 291.2C1149.5 292.2 1134.6 293.2 1119.5 294.2C952.1 305 774.6 313.8 636.8 309.4C505.1 305.2 425.6 295.7 374.8 289.7C349.8 286.8 261.8 245.5 198.6 224.2C136.7 203.3 105.8 176.7 188.7 158.2C269.7 140.1 431.7 121.8 747.9 135.8Z" fill="#C5DC7A"/>
<path d="M752 139.1C901.9 146.1 1037 159.6 1152.4 167.9C1297.1 178.2 1424.3 189.3 1494.5 196.5C1506.1 197.7 1516.1 198.2 1524.3 198.4C1606 200.2 1667.6 184.2 1671.6 218.1C1683.3 230.4 1643.6 245.5 1539.1 257.5C1450 267.7 1313.8 280.6 1166.1 290.8C1151.4 291.8 1136.6 292.8 1121.7 293.8C956.4 304.5 781.1 313 643.6 309C516 305.3 436 296.5 384 290.3C358.4 287.3 268.3 248.2 203.5 226.5C139.9 205.2 107.1 178.4 190.5 160C270.2 142.4 431.3 125 752 139.1Z" fill="#C5DB79"/>
<path d="M756.1 142.4C904.7 149.3 1039.5 162.2 1154.8 170.4C1300.1 180.7 1426.1 191.6 1495.5 198C1507.1 199.1 1517.1 199.6 1525.2 199.7C1607.1 200.9 1669.3 185 1671.5 219C1681.5 230.8 1639.6 245.4 1537.1 257.3C1447.9 267.6 1313.5 280.3 1167.7 290.4C1153.1 291.4 1138.5 292.4 1123.7 293.3C960.5 303.8 787.5 312.1 650.3 308.6C526.8 305.4 446.4 297.2 393.1 291C366.9 287.9 274.7 251 208.3 228.9C142.9 207.1 108.3 180.2 192.2 161.9C270.8 144.7 431 128.1 756.1 142.4Z" fill="#C4DA78"/>
<path d="M760.2 145.7C907.6 152.5 1042.1 164.7 1157.2 172.9C1303.1 183.2 1428 193.8 1496.5 199.5C1508.1 200.5 1518.1 201 1526.2 200.9C1608.3 200.1 1671 185.7 1671.6 219.9C1679.8 231.3 1635.8 245.4 1535.3 257.1C1446.1 267.5 1313.3 280 1169.5 289.9C1155.1 290.9 1140.5 291.9 1125.9 292.8C964.8 303.1 794 311.2 657.1 308.1C537.7 305.4 456.8 297.9 402.3 291.5C375.5 288.3 281.2 253.7 213.2 231.1C146.1 208.9 109.5 181.8 193.9 163.6C271.4 147 430.7 131.3 760.2 145.7Z" fill="#C3DA77"/>
<path d="M764.2 149C910.4 155.7 1044.5 167.2 1159.6 175.4C1306 185.7 1429.9 196.1 1497.6 201C1509.2 201.9 1519.1 202.3 1527.2 202.2C1609.5 201 1672.8 186.5 1671.6 220.8C1678 231.8 1631.9 245.3 1533.4 257C1444.1 267.6 1313.1 279.9 1171.2 289.6C1156.9 290.6 1142.5 291.5 1128.1 292.5C969.1 302.7 800.5 310.5 663.9 307.8C548.7 305.5 467.3 298.8 411.5 292.2C384.1 289 287.6 256.5 218.1 233.6C149.3 210.9 110.8 183.6 195.7 165.6C272 149.3 430.3 134.4 764.2 149Z" fill="#C2D976"/>
<path d="M768.3 152.3C913.2 158.8 1047.1 169.8 1162 177.9C1309 188.2 1431.8 198.3 1498.6 202.6C1510.2 203.3 1520.1 203.6 1528.1 203.5C1610.6 202.8 1674.5 187.3 1671.6 221.8C1676.3 232.3 1628 245.5 1531.5 256.9C1442.1 267.7 1312.8 279.7 1172.9 289.2C1158.8 290.2 1144.5 291.1 1130.2 292C973.3 302 806.9 309.6 670.6 307.4C559.5 305.6 477.6 299.6 420.6 292.8C392.6 289.5 294 259.2 222.9 235.9C152.3 212.8 112 185.3 197.4 167.4C272.6 151.6 430 137.6 768.3 152.3Z" fill="#C2D875"/>
<path d="M772.4 155.6C916.1 162 1049.6 172.3 1164.4 180.3C1312 190.6 1433.6 200.5 1499.6 204C1511.2 204.6 1521 204.8 1529 204.7C1611.7 203.4 1676.1 188 1671.5 222.6C1674.4 232.7 1624.1 245.3 1529.4 256.6C1440 267.5 1312.4 279.3 1174.4 288.7C1160.4 289.7 1146.3 290.6 1132.1 291.5C977.3 301.3 813.1 308.6 677.1 306.9C570.1 305.6 487.8 300.2 429.5 293.4C400.9 290 300.2 261.9 227.5 238.2C155.2 214.6 112.9 186.9 198.9 169.1C273.2 153.8 429.7 140.7 772.4 155.6Z" fill="#C1D874"/>
<path d="M776.5 158.9C919 165.2 1052.2 174.9 1166.8 182.8C1314.9 193 1435.5 202.7 1500.7 205.5C1512.3 206 1522.1 206.1 1530 205.9C1612.9 203.9 1672.7 188.1 1671.6 223.5C1671.3 233.2 1620.3 245.3 1527.6 256.5C1438.1 267.5 1312.2 279.1 1176.2 288.3C1162.3 289.2 1148.4 290.2 1134.3 291C981.6 300.7 819.7 307.6 683.9 306.5C581 305.6 498.2 301 438.7 294C409.5 290.6 306.7 264.7 232.4 240.6C158.4 216.6 114.2 188.7 200.7 171C273.7 156.1 429.4 143.9 776.5 158.9Z" fill="#C0D773"/>
<path d="M780.6 162.2C921.8 168.3 1054.7 177.4 1169.2 185.3C1317.9 195.5 1437.4 205 1501.7 207C1513.3 207.4 1523.1 207.4 1530.9 207.2C1614 204.5 1676.8 188.9 1671.6 224.4C1670.3 233.5 1616.4 245.2 1525.7 256.3C1436.1 267.4 1312 278.8 1177.9 287.9C1164.2 288.8 1150.4 289.7 1136.5 290.6C985.9 300.1 826.2 306.7 690.7 306.1C591.9 305.6 508.6 301.8 447.9 294.6C418.1 291.1 313.2 267.3 237.3 242.9C161.6 218.3 115.4 190.2 202.5 172.8C274.3 158.3 429 147 780.6 162.2Z" fill="#C0D772"/>
<path d="M204.2 174.6C274.9 160.6 428.7 150.1 784.6 165.4C1140.6 180.7 1448.5 211.7 1531.8 208.4C1615.1 205.1 1681.2 190.1 1671.5 225.3C1666.7 242.9 1442.3 269.7 1179.5 287.4C916.7 305.1 615.5 313.8 457 295.2C426.6 291.6 319.6 270.1 242.1 245.2C164.6 220.3 116.7 192 204.2 174.6Z" fill="#BFD671"/>
<path d="M0 549.9H1920V199.1C1920 199.1 1748.2 105.3 1355.1 145.9C962 186.4 311.6 264 172.2 233C32.9 202.1 0 220.3 0 220.3V549.9Z" fill="#CBE689"/>
<path d="M7.49998 223.8C8.09998 223.8 41.2 206.3 178.9 236.1C320.2 266.7 966 190.5 1355.8 150.4C1427.7 143 1492 140 1548.6 140C1801.7 139.7 1916 202.9 1917.6 203.2C1919.2 203.5 1920.1 547.3 1918 548.7C1915.8 550.2 11.3 550.8 8.99998 550.2C6.79998 549.7 3.49998 224.2 7.49998 223.8Z" fill="#CBE588"/>
<path d="M15.1 227.3C16.3 227.2 49.6 210.5 185.6 239.3C328.9 269.6 970.2 194.7 1356.5 155.1C1428.4 147.8 1492.4 144.7 1548.3 144.4C1798.2 143.1 1912.1 206.8 1915.2 207.3C1918.3 207.8 1920.1 544.6 1916 547.5C1911.6 550.6 22.5 551.7 18 550.6C13.5 549.6 6.9 228 15.1 227.3Z" fill="#CAE587"/>
<path d="M22.5999 230.8C24.4999 230.7 57.9 214.6 192.3 242.4C337.5 272.4 974.3 198.8 1357.2 159.7C1429.1 152.4 1492.9 149.2 1548 148.8C1794.6 146.4 1908.1 210.7 1912.8 211.5C1917.5 212.3 1920.2 542.1 1914 546.4C1907.4 551 33.8 552.7 27 551C20.2 549.4 10.3999 231.8 22.5999 230.8Z" fill="#CAE486"/>
<path d="M30.0999 234.3C32.5999 234.1 66.2 218.8 198.9 245.5C346.1 275.2 978.4 202.9 1357.8 164.4C1429.7 157.2 1493.2 153.9 1547.5 153.2C1790.9 149.8 1904 214.6 1910.2 215.7C1916.5 216.8 1920.1 539.5 1911.8 545.3C1903 551.4 44.8999 553.7 35.8999 551.4C26.8999 549.1 13.7999 235.6 30.0999 234.3Z" fill="#C9E485"/>
<path d="M37.6 237.8C40.7 237.6 74.5 222.9 205.6 248.7C354.8 278.1 982.5 207.1 1358.5 169.1C1430.4 161.9 1493.7 158.6 1547.2 157.7C1787.3 153.2 1900 218.7 1907.9 220C1915.7 221.4 1920.2 537.1 1909.9 544.3C1898.9 552 56.3001 554.8 45.0001 552C33.7001 549.2 17.3 239.4 37.6 237.8Z" fill="#C9E384"/>
<path d="M45.1 241.3C48.8 241 82.9 227 212.2 251.8C363.4 280.9 986.5 211.2 1359.1 173.7C1431 166.6 1494 163.1 1546.8 162C1783.6 156.5 1896 222.5 1905.4 224.1C1914.8 225.7 1920.2 534.5 1907.8 543.1C1894.6 552.3 67.4 555.7 53.9 552.3C40.4 548.9 20.7 243.2 45.1 241.3Z" fill="#C8E383"/>
<path d="M52.6 244.8C56.9 244.5 91.2001 231 218.9 255C372.1 283.7 990.7 215.4 1359.8 178.4C1431.7 171.3 1494.4 167.8 1546.4 166.5C1780 159.9 1891.9 226.5 1902.9 228.4C1913.9 230.3 1920.2 532 1905.7 542.1C1890.3 552.9 78.6001 556.9 62.8001 552.9C47.0001 548.9 24.2 247 52.6 244.8Z" fill="#C8E282"/>
<path d="M60.1 248.3C65 247.9 99.5 235.1 225.5 258.1C380.7 286.5 994.7 219.5 1360.5 183C1432.4 176 1494.9 172.3 1546.1 170.8C1776.4 163.1 1888 230.3 1900.5 232.5C1913 234.7 1920.3 529.4 1903.7 540.9C1886.2 553.2 89.9 557.8 71.8 553.2C53.7 548.6 27.7 250.8 60.1 248.3Z" fill="#C7E281"/>
<path d="M67.7 251.8C73.3 251.4 108 239.1 232.3 261.3C389.5 289.3 999 223.6 1361.3 187.7C1433.2 180.7 1495.4 177 1545.9 175.3C1773 166.6 1884.2 234.3 1898.3 236.7C1912.4 239.1 1920.5 526.8 1901.9 539.8C1882.2 553.6 101.4 558.8 81 553.6C60.6 548.4 31.1 254.5 67.7 251.8Z" fill="#C7E180"/>
<path d="M75.2 255.3C81.4 254.8 116.3 243.1 238.9 264.4C398.1 292 1003 227.7 1361.9 192.3C1433.8 185.4 1495.8 181.7 1545.4 179.6C1769.2 170.3 1880 238.1 1895.7 240.8C1911.4 243.5 1920.4 524.2 1899.7 538.6C1877.8 554 112.4 559.7 89.9 554C67.3 548.3 34.6 258.3 75.2 255.3Z" fill="#C7E17F"/>
<path d="M82.7 258.8C89.5 258.3 124.7 247.1 245.6 267.5C406.8 294.8 1007.1 231.8 1362.6 196.9C1434.5 190 1496.2 186.2 1545.1 184C1765.7 173.7 1876.1 242 1893.3 245C1910.5 248 1920.5 521.6 1897.8 537.5C1873.7 554.4 123.8 560.7 99 554.4C74 548.1 38 262.1 82.7 258.8Z" fill="#C6E07E"/>
<path d="M90.2 262.3C97.6 261.7 133.1 251.1 252.2 270.7C415.5 297.6 1011.2 236 1363.2 201.6C1435.1 194.8 1496.5 190.9 1544.7 188.4C1762 177.1 1872 246 1890.8 249.2C1909.6 252.4 1920.4 519.1 1895.7 536.4C1869.4 554.8 135 561.7 107.9 554.8C80.8 548 41.5 265.9 90.2 262.3Z" fill="#C6DF7D"/>
<path d="M97.7 265.7C105.7 265.1 141.4 254.9 258.9 273.7C424.2 300.2 1015.3 240 1363.9 206.1C1435.8 199.3 1497 195.4 1544.3 192.7C1758.4 180.3 1868 249.8 1888.3 253.3C1908.7 256.8 1920.4 516.4 1893.6 535.2C1865.1 555.2 146.1 562.6 116.8 555.2C87.5 547.8 44.9 269.7 97.7 265.7Z" fill="#C5DF7C"/>
<path d="M105.2 269.2C113.9 268.5 149.8 258.8 265.5 276.9C432.8 303 1019.3 244.2 1364.5 210.8C1436.4 204.1 1497.3 200.1 1543.9 197.1C1754.7 183.7 1863.9 253.7 1885.9 257.5C1907.9 261.3 1920.5 513.9 1891.6 534.1C1860.9 555.6 157.4 563.6 125.8 555.6C94.2 547.6 48.4 273.5 105.2 269.2Z" fill="#C5DE7B"/>
<path d="M112.8 272.7C122.1 272 158.3 262.7 272.2 280C441.6 305.7 1023.5 248.3 1365.3 215.4C1437.2 208.7 1497.9 204.6 1543.7 201.4C1751.3 187 1860.1 257.5 1883.6 261.5C1907.1 265.6 1920.6 511.1 1889.7 532.8C1856.7 556 168.7 564.6 134.8 556C100.9 547.5 51.8 277.3 112.8 272.7Z" fill="#C4DE7A"/>
<path d="M120.3 276.2C130.2 275.4 166.7 266.6 278.9 283.1C450.3 308.3 1027.6 252.4 1366 220C1437.9 213.4 1498.3 209.2 1543.3 205.8C1747.6 190.4 1856 261.4 1881.1 265.7C1906.2 270 1920.6 508.6 1887.6 531.8C1852.5 556.4 180 565.5 143.8 556.4C107.6 547.3 55.3 281.1 120.3 276.2Z" fill="#C4DD79"/>
<path d="M127.8 279.7C138.3 278.9 175 270.5 285.5 286.3C458.9 311.1 1031.7 256.6 1366.6 224.7C1438.5 218.1 1498.6 213.9 1542.9 210.2C1744 193.8 1852 265.3 1878.6 269.9C1905.2 274.5 1920.6 506 1885.5 530.7C1848.2 556.8 191.1 566.5 152.8 556.8C114.4 547.2 58.7001 284.9 127.8 279.7Z" fill="#C4DD78"/>
<path d="M135.3 283.2C146.4 282.4 183.4 274.4 292.2 289.4C467.7 313.7 1035.8 260.7 1367.3 229.3C1439.2 222.8 1499.1 218.4 1542.6 214.6C1740.4 197.1 1848.1 269.2 1876.2 274.1C1904.4 279 1920.7 503.5 1883.5 529.6C1844 557.3 202.4 567.5 161.8 557.3C121.1 547 62.2 288.7 135.3 283.2Z" fill="#C3DC77"/>
<path d="M142.8 286.7C154.6 285.8 191.8 278.2 298.8 292.6C476.4 316.4 1039.8 264.9 1367.9 234C1439.8 227.5 1499.4 223.1 1542.1 219C1736.7 200.5 1843.9 273.2 1873.7 278.3C1903.4 283.4 1920.6 501 1881.4 528.5C1839.7 557.7 213.6 568.5 170.7 557.7C127.8 546.8 65.6 292.5 142.8 286.7Z" fill="#C3DC76"/>
<path d="M150.3 290.2C162.7 289.3 200.2 282 305.5 295.7C485.1 319 1043.9 268.3 1368.6 238.6C1440.5 232 1499.9 227.7 1541.8 223.4C1733.2 203.9 1840 277.1 1871.3 282.5C1902.6 287.9 1920.7 498.4 1879.4 527.4C1835.5 558.1 224.9 569.5 179.7 558.1C134.6 546.7 69.1 296.3 150.3 290.2Z" fill="#C2DB75"/>
<path d="M157.8 293.7C170.8 292.7 208.6 285.9 312.1 298.9C493.8 321.7 1048 272.5 1369.2 243.3C1441.1 236.8 1500.2 232.3 1541.4 227.8C1729.5 207.2 1835.9 281 1868.8 286.7C1901.7 292.4 1920.7 495.9 1877.3 526.3C1831.2 558.6 236 570.6 188.6 558.6C141.3 546.5 72.5 300.1 157.8 293.7Z" fill="#C2DB74"/>
<path d="M165.4 297.2C179 296.2 217.1 289.7 318.9 302C502.6 324.3 1052.2 276.6 1370.1 247.9C1442 241.4 1500.8 236.9 1541.2 232.2C1726.1 210.6 1832.1 284.9 1866.5 290.8C1900.9 296.7 1920.8 493.2 1875.4 525.1C1827.1 558.9 247.4 571.5 197.7 558.9C148 546.4 76 303.9 165.4 297.2Z" fill="#C1DA73"/>
<path d="M172.9 300.7C187.1 299.6 225.5 293.4 325.5 305.1C511.3 326.8 1056.2 280.7 1370.7 252.5C1442.6 246.1 1501.2 241.5 1540.8 236.5C1722.4 213.9 1828 288.7 1864.1 294.9C1900.1 301.1 1920.9 490.6 1873.4 523.9C1823 559.3 258.7 572.4 206.7 559.3C154.8 546.2 79.5 307.7 172.9 300.7Z" fill="#C1DA72"/>
<path d="M180.4 304.2C195.2 303.1 233.9 297.2 332.2 308.3C520.1 329.5 1060.4 284.9 1371.4 257.2C1443.3 250.8 1501.6 246.1 1540.5 241C1718.9 217.3 1824.1 292.7 1861.7 299.2C1899.3 305.7 1921 488.1 1871.4 522.9C1818.8 559.8 269.9 573.5 215.8 559.8C161.5 546 82.9 311.5 180.4 304.2Z" fill="#C1D972"/>
<path d="M187.9 307.6C203.4 306.4 242.3 300.9 338.8 311.3C528.8 331.9 1064.4 288.899 1372 261.699C1443.9 255.399 1502 250.599 1540 245.199C1715.1 220.499 1820 296.399 1859.1 303.199C1898.2 309.999 1920.8 485.399 1869.2 521.599C1814.4 559.999 281 574.3 224.6 560C168.2 545.9 86.4 315.3 187.9 307.6Z" fill="#C0D871"/>
<path d="M195.4 311.1C211.5 309.9 250.7 304.6 345.5 314.5C537.5 334.5 1068.5 293.1 1372.7 266.4C1444.6 260.1 1502.4 255.3 1539.7 249.7C1711.6 223.9 1816 300.5 1856.7 307.5C1897.4 314.5 1920.9 482.9 1867.2 520.6C1810.2 560.6 292.3 575.4 233.6 560.6C174.9 545.7 89.8001 319.1 195.4 311.1Z" fill="#C0D870"/>
<path d="M202.9 314.6C219.6 313.3 259.1 308.3 352.1 317.6C546.2 336.9 1072.6 297.2 1373.3 271C1445.2 264.8 1502.7 259.8 1539.2 254C1707.8 227.2 1811.9 304.3 1854.1 311.6C1896.4 318.9 1920.8 480.3 1865 519.4C1805.8 560.9 303.4 576.3 242.4 560.9C181.7 545.5 93.3 322.9 202.9 314.6Z" fill="#BFD76F"/>
<path d="M210.5 318.1C227.8 316.8 267.6 312.1 358.9 320.7C555.1 339.4 1076.8 301.3 1374.2 275.7C1446.1 269.5 1503.4 264.5 1539.1 258.5C1704.5 230.6 1808.1 308.3 1852 315.8C1895.8 323.4 1921.2 477.7 1863.3 518.3C1801.9 561.3 314.9 577.3 251.7 561.3C188.4 545.4 96.7 326.7 210.5 318.1Z" fill="#BFD76E"/>
<path d="M218 321.6C235.9 320.2 276 315.8 365.5 323.9C563.8 341.9 1080.9 305.5 1374.8 280.4C1446.7 274.3 1503.7 269.2 1538.7 262.9C1700.8 234 1804.1 312.2 1849.5 320C1894.9 327.8 1921.1 475.2 1861.2 517.2C1797.6 561.8 326.1 578.3 260.6 561.8C195.1 545.2 100.2 330.5 218 321.6Z" fill="#BED66D"/>
<path d="M225.5 325.1C244.1 323.7 284.5 319.5 372.2 327C572.6 344.2 1085 309.6 1375.5 285C1447.4 278.9 1504.2 273.7 1538.3 267.3C1697.2 237.3 1800 316.1 1847 324.2C1894 332.3 1921.1 472.7 1859.1 516.1C1793.3 562.2 337.3 579.3 269.6 562.2C201.8 545.1 103.6 334.3 225.5 325.1Z" fill="#BED66C"/>
<path d="M233 328.6C252.2 327.1 292.9 323.2 378.8 330.2C581.2 346.7 1089 313.8 1376.1 289.7C1448 283.7 1504.5 278.4 1537.9 271.7C1693.6 240.7 1796 320 1844.5 328.4C1893 336.8 1921.1 470.1 1857 515C1789 562.7 348.5 580.3 278.5 562.7C208.6 544.9 107.1 338.1 233 328.6Z" fill="#BDD56B"/>
<path d="M240.5 332.1C260.3 330.6 301.3 326.8 385.5 333.3C590 349 1093.2 317.9 1376.8 294.3C1448.7 288.3 1505 282.9 1537.6 276.1C1690 244 1792 323.9 1842.1 332.6C1892.2 341.2 1921.1 467.6 1855 513.9C1784.8 563.1 359.7 581.3 287.5 563.1C215.3 544.7 110.5 341.9 240.5 332.1Z" fill="#BDD56A"/>
<path d="M248 335.599C268.4 334.099 309.7 330.5 392.1 336.5C598.7 351.4 1097.2 322.1 1377.4 299C1449.3 293.1 1505.3 287.6 1537.1 280.5C1686.3 247.3 1787.9 327.9 1839.6 336.8C1891.3 345.7 1921.1 465 1853 512.8C1780.6 563.5 371 582.3 296.5 563.5C222 544.6 114 345.699 248 335.599Z" fill="#BDD469"/>
<path d="M255.5 339.1C276.5 337.5 318.1 334.2 398.8 339.6C607.5 353.6 1101.4 326.8 1378.1 303.6C1450 297.9 1505.7 292.2 1536.8 284.9C1682.7 250.7 1784 331.8 1837.2 341C1890.4 350.2 1921.2 462.5 1851 511.7C1776.4 564 382.3 583.3 305.5 564C228.8 544.4 117.4 349.5 255.5 339.1Z" fill="#BCD468"/>
<path d="M263.1 342.6C284.8 341 326.6 337.8 405.5 342.7C616.3 355.8 1105.5 330.9 1378.9 308.2C1450.8 302.5 1506.3 296.7 1536.6 289.2C1679.3 253.9 1780.1 335.6 1834.9 345C1889.7 354.5 1921.3 459.7 1849.1 510.4C1772.3 564.2 393.6 584.2 314.6 564.2C235.5 544.3 120.9 353.3 263.1 342.6Z" fill="#BCD367"/>
<path d="M270.6 346.1C292.9 344.4 335 341.5 412.2 345.9C625.1 358.1 1109.7 335.1 1379.6 312.9C1451.5 307.3 1506.7 301.4 1536.2 293.7C1675.6 257.3 1776.1 339.6 1832.4 349.3C1888.8 359 1921.3 457.3 1847 509.4C1768 564.7 404.8 585.299 323.5 564.699C242.2 544.099 124.4 357.1 270.6 346.1Z" fill="#BBD366"/>
<path d="M278.1 349.5C301 347.8 343.4 345 418.8 348.9C633.8 360.1 1113.7 339.1 1380.2 317.4C1452.1 311.8 1507.1 305.8 1535.8 297.9C1672 260.4 1772 343.3 1830 353.3C1887.9 363.3 1921.4 454.5 1845 508.1C1763.9 565 416.1 586.1 332.6 565C248.9 543.9 127.8 360.9 278.1 349.5Z" fill="#BBD265"/>
<path d="M285.6 353C309.1 351.2 351.8 348.6 425.5 352.1C642.6 362.3 1117.9 343.3 1380.9 322.1C1452.8 316.6 1507.5 310.5 1535.5 302.4C1668.4 263.8 1768.1 347.3 1827.6 357.6C1887.1 367.9 1921.5 452.1 1843 507.1C1759.7 565.5 427.4 587.2 341.6 565.5C255.7 543.8 131.3 364.7 285.6 353Z" fill="#BAD164"/>
<path d="M293.1 356.5C317.2 354.7 360.2 352.2 432.1 355.2C651.3 364.3 1121.9 347.4 1381.5 326.7C1453.4 321.2 1507.8 315 1535 306.7C1664.6 267 1763.9 351.1 1825 361.7C1886.1 372.2 1921.3 449.4 1840.8 505.9C1755.3 565.8 438.4 588.1 350.4 565.8C262.4 543.6 134.7 368.5 293.1 356.5Z" fill="#BAD163"/>
<path d="M300.6 360C325.3 358.1 368.6 355.8 438.8 358.3C660.1 366.3 1126 351.5 1382.2 331.3C1454 325.9 1508.3 319.6 1534.7 311C1661.1 270.2 1760 355 1822.6 365.8C1885.2 376.6 1921.4 446.8 1838.8 504.7C1751.1 566.2 449.7 589 359.4 566.2C269.1 543.4 138.2 372.3 300.6 360Z" fill="#BAD062"/>
<path d="M308.2 363.5C333.6 361.6 377.2 359.4 445.5 361.5C668.9 368.3 1130.2 355.7 1382.9 336C1454.7 330.6 1508.7 324.2 1534.4 315.5C1657.5 273.6 1756 359 1820.2 370C1884.4 381.1 1921.5 444.2 1836.8 503.6C1746.9 566.6 461 590 368.4 566.6C275.8 543.3 141.6 376.1 308.2 363.5Z" fill="#B9D061"/>
<path d="M315.7 367C341.7 365 385.6 363 452.2 364.6C677.6 370.1 1134.3 359.7 1383.7 340.6C1455.5 335.3 1509.2 328.8 1534.1 319.8C1654 276.8 1752.1 362.8 1817.9 374.1C1883.7 385.5 1921.6 441.6 1834.9 502.4C1742.8 567 472.4 590.9 377.5 567C282.6 543.1 145.1 379.9 315.7 367Z" fill="#B9CF60"/>
<path d="M323.2 370.5C349.8 368.5 394 369.1 458.8 367.8C686.3 363.3 1138.4 363.9 1384.3 345.3C1456.1 340 1509.6 333.4 1533.7 324.3C1650.3 280.2 1748.1 366.8 1815.4 378.4C1882.7 390 1921.6 439.2 1832.8 501.4C1738.5 567.5 483.5 591.999 386.4 567.499C289.3 542.999 148.5 383.7 323.2 370.5Z" fill="#B8CF5F"/>
<path d="M330.7 374C357.9 371.9 402.4 372.2 465.4 370.9C695 366.4 1142.4 368 1384.9 349.9C1456.7 344.7 1509.9 338 1533.3 328.6C1646.6 283.3 1744 370.6 1812.9 382.5C1881.8 394.4 1921.6 436.5 1830.7 500.2C1734.2 567.8 494.7 592.9 395.4 567.8C296 542.8 152 387.5 330.7 374Z" fill="#B8CE5E"/>
<path d="M338.2 377.5C366 375.4 410.8 375.2 472.1 374.1C703.7 369.6 1146.5 372.2 1385.6 354.6C1457.4 349.4 1510.3 342.6 1532.9 333.1C1642.9 286.7 1740 374.6 1810.4 386.8C1880.9 399 1921.5 434.1 1828.6 499.2C1729.9 568.4 505.9 594 404.3 568.4C302.8 542.6 155.4 391.3 338.2 377.5Z" fill="#B7CE5D"/>
<path d="M345.7 380.999C374.2 378.799 419.1 378.299 478.7 377.199C712.4 372.799 1150.6 376.299 1386.2 359.199C1458 354.099 1510.7 347.1 1532.5 337.4C1639.1 289.6 1735.9 378.4 1807.9 390.9C1879.9 403.3 1921.5 431.399 1826.5 497.999C1725.6 568.699 517 594.899 413.2 568.699C309.5 542.499 158.9 395.099 345.7 380.999Z" fill="#B7CD5C"/>
<path d="M353.2 384.5C382.3 382.3 427.5 380.8 485.4 380.3C721.2 378.3 1154.7 380.4 1386.9 363.8C1458.7 358.7 1511.1 351.7 1532.2 341.8C1635.6 293 1732 382.4 1805.6 395.1C1879.2 407.8 1921.7 428.9 1824.6 496.9C1721.5 569.1 528.4 595.9 422.3 569.1C316.2 542.3 162.3 398.9 353.2 384.5Z" fill="#B6CD5B"/>
<path d="M1822.6 495.7C1717.3 569.5 539.7 596.8 431.3 569.5C322.9 542.1 165.8 402.7 360.8 387.9C555.8 373.1 1431.8 396 1531.9 346.1C1632 296.2 1728 386.2 1803.2 399.1C1878.3 412.2 1921.7 426.3 1822.6 495.7Z" fill="#B6CC5A"/>
</svg>
