<svg width="14" height="13" viewBox="0 0 14 13" fill="none" xmlns="http://www.w3.org/2000/svg">
<path d="M13.9 6.49997C13.9 5.09997 12.7 3.89997 11.3 3.89997C11.2 3.89997 11.2 3.89997 11.1 3.89997L11.2 3.79997C11.8 2.49997 11.3 0.999974 10.1 0.299974C8.9 -0.300026 7.5 0.0999744 6.8 1.09997C6 0.0999744 4.6 -0.200026 3.5 0.499974C2.3 1.19997 1.9 2.69997 2.5 3.89997C1.1 3.89997 0 5.09997 0 6.49997C0 7.89997 1.2 8.99997 2.6 8.99997C2.7 8.99997 2.7 8.99997 2.8 8.99997L2.7 9.09997C2 10.4 2.5 12 3.8 12.6C5 13.2 6.4 12.8 7.1 11.8C7.9 12.8 9.3 13.1 10.4 12.5C11.6 11.8 12 10.3 11.4 9.09997C12.8 8.99997 13.9 7.79997 13.9 6.49997Z" fill="#F8B62D"/>
</svg>
