<svg width="537" height="500" viewBox="0 0 537 500" fill="none" xmlns="http://www.w3.org/2000/svg">
<path d="M536.7 249.92C536.7 194.82 492 150.22 437 150.22C435 150.22 433 150.32 431 150.42C432 148.72 433 146.92 433.9 145.12C459 96.0198 439.5 36.0198 390.4 10.9198C345.2 -12.1802 290.6 2.61984 262.7 43.5198C232.7 4.21984 177.4 -7.58016 133.5 17.9198C87.2 44.8198 70.6 103.32 95.2 150.32C42.2 152.72 0 196.42 0 249.92C0 305.02 44.7 349.62 99.7 349.62C101.7 349.62 103.7 349.52 105.7 349.42C104.7 351.12 103.7 352.92 102.8 354.72C77.7 403.82 97.2 463.82 146.3 488.92C191.5 512.02 246.1 497.22 274 456.32C304.1 495.62 359.4 507.42 403.3 481.82C449.6 454.92 466.2 396.42 441.6 349.42C494.5 347.22 536.7 303.52 536.7 249.92Z" fill="#1BBCD9"/>
</svg>
